<svg width="94" height="16" viewBox="0 0 94 16" fill="none" xmlns="http://www.w3.org/2000/svg">
<path d="M0.434659 15V0.454545H5.8892C7.00663 0.454545 7.94413 0.648674 8.7017 1.03693C9.46402 1.42519 10.0393 1.9697 10.4276 2.67045C10.8205 3.36648 11.017 4.1785 11.017 5.10653C11.017 6.0393 10.8182 6.84896 10.4205 7.53551C10.0275 8.21733 9.44744 8.74526 8.6804 9.11932C7.91335 9.48864 6.97112 9.6733 5.85369 9.6733H1.96875V7.4858H5.49858C6.15199 7.4858 6.68703 7.39583 7.10369 7.21591C7.52036 7.03125 7.82813 6.76373 8.02699 6.41335C8.23059 6.05824 8.33239 5.62263 8.33239 5.10653C8.33239 4.59044 8.23059 4.15009 8.02699 3.78551C7.82339 3.41619 7.51326 3.13684 7.09659 2.94744C6.67992 2.75331 6.14252 2.65625 5.48438 2.65625H3.0696V15H0.434659ZM7.94886 8.40909L11.5497 15H8.60938L5.07244 8.40909H7.94886ZM18.0021 15.2131C16.9084 15.2131 15.9638 14.9858 15.1683 14.5312C14.3776 14.072 13.7692 13.4233 13.343 12.5852C12.9169 11.7424 12.7038 10.7505 12.7038 9.60938C12.7038 8.48722 12.9169 7.50237 13.343 6.65483C13.7739 5.80256 14.3752 5.13968 15.147 4.66619C15.9188 4.18797 16.8255 3.94886 17.8672 3.94886C18.5395 3.94886 19.174 4.05777 19.7706 4.27557C20.3719 4.48864 20.9022 4.82008 21.3615 5.26989C21.8255 5.7197 22.1901 6.29261 22.4553 6.98864C22.7204 7.67992 22.853 8.50379 22.853 9.46023V10.2486H13.9112V8.51562H20.3885C20.3838 8.0232 20.2772 7.58523 20.0689 7.2017C19.8606 6.81345 19.5694 6.50805 19.1953 6.28551C18.826 6.06297 18.3951 5.9517 17.9027 5.9517C17.3771 5.9517 16.9155 6.07955 16.5178 6.33523C16.12 6.58617 15.8099 6.91761 15.5874 7.32955C15.3696 7.73674 15.2583 8.18419 15.2536 8.67188V10.1847C15.2536 10.8191 15.3696 11.3636 15.6016 11.8182C15.8336 12.268 16.1579 12.6136 16.5746 12.8551C16.9912 13.0919 17.4789 13.2102 18.0376 13.2102C18.4117 13.2102 18.7502 13.1581 19.0533 13.054C19.3563 12.9451 19.6191 12.7865 19.8416 12.5781C20.0642 12.3698 20.2322 12.1117 20.3459 11.804L22.7464 12.0739C22.5949 12.7083 22.3061 13.2623 21.88 13.7358C21.4586 14.2045 20.9188 14.5691 20.2607 14.8295C19.6025 15.0852 18.8497 15.2131 18.0021 15.2131ZM25.1417 15V0.454545H27.7766V12.7912H34.1829V15H25.1417ZM39.4954 15.2202C38.8041 15.2202 38.1815 15.0971 37.6275 14.8509C37.0782 14.5999 36.6426 14.2306 36.3207 13.7429C36.0034 13.2552 35.8448 12.6539 35.8448 11.9389C35.8448 11.3234 35.9585 10.8144 36.1857 10.4119C36.413 10.0095 36.7231 9.6875 37.1161 9.44602C37.5091 9.20455 37.9518 9.02225 38.4442 8.89915C38.9414 8.77131 39.4551 8.67898 39.9854 8.62216C40.6246 8.55587 41.1431 8.49669 41.5408 8.4446C41.9386 8.38778 42.2274 8.30256 42.4073 8.18892C42.592 8.07055 42.6843 7.88826 42.6843 7.64205V7.59943C42.6843 7.06439 42.5257 6.65009 42.2085 6.35653C41.8912 6.06297 41.4343 5.91619 40.8377 5.91619C40.208 5.91619 39.7085 6.0535 39.3391 6.32812C38.9746 6.60275 38.7283 6.92708 38.6005 7.30114L36.1999 6.96023C36.3893 6.29735 36.7018 5.74337 37.1374 5.2983C37.573 4.84848 38.1057 4.51231 38.7354 4.28977C39.3652 4.0625 40.0612 3.94886 40.8235 3.94886C41.3491 3.94886 41.8723 4.01042 42.3931 4.13352C42.9139 4.25663 43.3898 4.46023 43.8207 4.74432C44.2515 5.02367 44.5972 5.40483 44.8576 5.88778C45.1228 6.37074 45.2553 6.97443 45.2553 7.69886V15H42.7837V13.5014H42.6985C42.5423 13.8045 42.3221 14.0885 42.038 14.3537C41.7586 14.6141 41.4059 14.8248 40.9798 14.9858C40.5584 15.142 40.0636 15.2202 39.4954 15.2202ZM40.163 13.331C40.6791 13.331 41.1265 13.2292 41.5053 13.0256C41.8841 12.8172 42.1753 12.5426 42.3789 12.2017C42.5872 11.8608 42.6914 11.4891 42.6914 11.0866V9.80114C42.6109 9.86742 42.4736 9.92898 42.2795 9.9858C42.0901 10.0426 41.877 10.0923 41.6403 10.1349C41.4035 10.1776 41.1692 10.2154 40.9371 10.2486C40.7051 10.2817 40.5039 10.3101 40.3335 10.3338C39.9499 10.3859 39.6067 10.4711 39.3036 10.5895C39.0006 10.7079 38.7615 10.8736 38.5863 11.0866C38.4111 11.295 38.3235 11.5649 38.3235 11.8963C38.3235 12.3698 38.4963 12.7273 38.842 12.9688C39.1876 13.2102 39.628 13.331 40.163 13.331ZM54.7937 10.4119V4.09091H57.3647V15H54.8718V13.0611H54.7582C54.512 13.6719 54.1071 14.1714 53.5437 14.5597C52.985 14.9479 52.296 15.142 51.4769 15.142C50.762 15.142 50.1299 14.9834 49.5806 14.6662C49.0361 14.3442 48.61 13.8778 48.3022 13.267C47.9944 12.6515 47.8406 11.9081 47.8406 11.0369V4.09091H50.4116V10.6392C50.4116 11.3305 50.601 11.8797 50.9798 12.2869C51.3585 12.6941 51.8557 12.8977 52.4712 12.8977C52.85 12.8977 53.217 12.8054 53.5721 12.6207C53.9272 12.4361 54.2184 12.1615 54.4457 11.7969C54.6777 11.4276 54.7937 10.9659 54.7937 10.4119ZM62.5795 8.60795V15H60.0085V4.09091H62.4659V5.9446H62.5938C62.8447 5.33381 63.2448 4.84848 63.794 4.48864C64.348 4.12879 65.0322 3.94886 65.8466 3.94886C66.5994 3.94886 67.2552 4.10985 67.8139 4.43182C68.3774 4.75379 68.813 5.22017 69.1207 5.83097C69.4332 6.44176 69.5871 7.18276 69.5824 8.05398V15H67.0114V8.4517C67.0114 7.72254 66.822 7.15199 66.4432 6.74006C66.0691 6.32812 65.5507 6.12216 64.8878 6.12216C64.438 6.12216 64.0379 6.22159 63.6875 6.42045C63.3419 6.61458 63.0696 6.89631 62.8707 7.26562C62.6766 7.63494 62.5795 8.08239 62.5795 8.60795ZM76.9545 15.2131C75.8655 15.2131 74.9304 14.974 74.1491 14.4957C73.3726 14.0175 72.7737 13.357 72.3523 12.5142C71.9356 11.6667 71.7273 10.6913 71.7273 9.58807C71.7273 8.48011 71.9403 7.50237 72.3665 6.65483C72.7926 5.80256 73.3939 5.13968 74.1705 4.66619C74.9517 4.18797 75.875 3.94886 76.9403 3.94886C77.8258 3.94886 78.6094 4.11222 79.2912 4.43892C79.9777 4.76089 80.5246 5.2178 80.9318 5.80966C81.339 6.39678 81.571 7.08333 81.6278 7.86932H79.1705C79.071 7.34375 78.8343 6.90578 78.4602 6.5554C78.0909 6.20028 77.5961 6.02273 76.9759 6.02273C76.4503 6.02273 75.9886 6.16477 75.5909 6.44886C75.1932 6.72822 74.883 7.13068 74.6605 7.65625C74.4427 8.18182 74.3338 8.81155 74.3338 9.54545C74.3338 10.2888 74.4427 10.928 74.6605 11.4631C74.8783 11.9934 75.1837 12.4029 75.5767 12.6918C75.9744 12.9759 76.4408 13.1179 76.9759 13.1179C77.3546 13.1179 77.6932 13.0469 77.9915 12.9048C78.2945 12.758 78.5478 12.5473 78.7514 12.2727C78.955 11.9981 79.0947 11.6643 79.1705 11.2713H81.6278C81.5663 12.0431 81.339 12.7273 80.946 13.3239C80.553 13.9157 80.018 14.3797 79.3409 14.7159C78.6638 15.0473 77.8684 15.2131 76.9545 15.2131ZM86.31 8.60795V15H83.739V0.454545H86.2532V5.9446H86.381C86.6367 5.32907 87.0321 4.84375 87.5671 4.48864C88.1069 4.12879 88.7934 3.94886 89.6268 3.94886C90.3844 3.94886 91.0449 4.10748 91.6083 4.42472C92.1718 4.74195 92.6074 5.20597 92.9151 5.81676C93.2276 6.42756 93.3839 7.1733 93.3839 8.05398V15H90.8129V8.4517C90.8129 7.7178 90.6235 7.14725 90.2447 6.74006C89.8706 6.32812 89.3451 6.12216 88.668 6.12216C88.2134 6.12216 87.8062 6.22159 87.4464 6.42045C87.0913 6.61458 86.8119 6.89631 86.6083 7.26562C86.4094 7.63494 86.31 8.08239 86.31 8.60795Z" fill="white"/>
</svg>
