<svg width="81" height="40" viewBox="0 0 81 40" fill="none" xmlns="http://www.w3.org/2000/svg">
<path d="M12.5 24.5C11 25.76 10.5 29.5 10.5 29.5C10.5 29.5 14.24 29 15.5 27.5C16.21 26.66 16.2 25.37 15.41 24.59C15.0213 24.219 14.5093 24.0046 13.9722 23.988C13.4352 23.9714 12.9109 24.1537 12.5 24.5Z" stroke="#FFD700" stroke-width="2" stroke-linecap="round" stroke-linejoin="round"/>
<path d="M20 23L17 20C17.5321 18.6194 18.2022 17.2961 19 16.05C20.1652 14.187 21.7876 12.6531 23.713 11.5941C25.6384 10.5351 27.8027 9.98637 30 10C30 12.72 29.22 17.5 24 21C22.7369 21.7987 21.3968 22.4687 20 23Z" stroke="black" stroke-width="2" stroke-linecap="round" stroke-linejoin="round"/>
<path d="M17 20H12C12 20 12.55 16.97 14 16C15.62 14.92 19 16 19 16" stroke="black" stroke-width="2" stroke-linecap="round" stroke-linejoin="round"/>
<path d="M20 23V28C20 28 23.03 27.45 24 26C25.08 24.38 24 21 24 21" stroke="black" stroke-width="2" stroke-linecap="round" stroke-linejoin="round"/>
<path d="M40.7585 17V8.27273H44.2017C44.8608 8.27273 45.4233 8.39062 45.8892 8.62642C46.358 8.85937 46.7145 9.19034 46.9588 9.61932C47.206 10.0455 47.3295 10.5469 47.3295 11.1236C47.3295 11.7031 47.2045 12.2017 46.9545 12.6193C46.7045 13.0341 46.3423 13.3523 45.8679 13.5739C45.3963 13.7955 44.8253 13.9062 44.1548 13.9062H41.8494V12.4233H43.8565C44.2088 12.4233 44.5014 12.375 44.7344 12.2784C44.9673 12.1818 45.1406 12.0369 45.2543 11.8438C45.3707 11.6506 45.429 11.4105 45.429 11.1236C45.429 10.8338 45.3707 10.5895 45.2543 10.3906C45.1406 10.1918 44.9659 10.0412 44.7301 9.93892C44.4972 9.83381 44.2031 9.78125 43.848 9.78125H42.6037V17H40.7585ZM45.4716 13.0284L47.6406 17H45.6037L43.4815 13.0284H45.4716ZM51.4769 17.1278C50.8036 17.1278 50.2241 16.9915 49.7383 16.7188C49.2553 16.4432 48.8832 16.054 48.6218 15.5511C48.3604 15.0455 48.2298 14.4474 48.2298 13.7571C48.2298 13.0838 48.3604 12.4929 48.6218 11.9844C48.8832 11.4759 49.2511 11.0795 49.7255 10.7955C50.2028 10.5114 50.7624 10.3693 51.4045 10.3693C51.8363 10.3693 52.2383 10.4389 52.6104 10.5781C52.9854 10.7145 53.3121 10.9205 53.5906 11.196C53.8718 11.4716 54.0906 11.8182 54.2468 12.2358C54.4031 12.6506 54.4812 13.1364 54.4812 13.6932V14.1918H48.9542V13.0668H52.7724C52.7724 12.8054 52.7156 12.5739 52.6019 12.3722C52.4883 12.1705 52.3306 12.0128 52.1289 11.8991C51.93 11.7827 51.6985 11.7244 51.4343 11.7244C51.1587 11.7244 50.9144 11.7884 50.7013 11.9162C50.4911 12.0412 50.3263 12.2102 50.207 12.4233C50.0877 12.6335 50.0266 12.8679 50.0238 13.1264V14.196C50.0238 14.5199 50.0835 14.7997 50.2028 15.0355C50.3249 15.2713 50.4968 15.4531 50.7184 15.581C50.94 15.7088 51.2028 15.7727 51.5067 15.7727C51.7085 15.7727 51.8931 15.7443 52.0607 15.6875C52.2283 15.6307 52.3718 15.5455 52.4911 15.4318C52.6104 15.3182 52.7013 15.179 52.7638 15.0142L54.4428 15.125C54.3576 15.5284 54.1829 15.8807 53.9187 16.1818C53.6573 16.4801 53.3192 16.7131 52.9045 16.8807C52.4925 17.0455 52.0167 17.1278 51.4769 17.1278Z" fill="black"/>
<path d="M40.0568 30V21.2727H41.1136V29.0625H45.1705V30H40.0568ZM48.5966 30.1534C48.1818 30.1534 47.8054 30.0753 47.4673 29.919C47.1293 29.7599 46.8608 29.5312 46.6619 29.233C46.4631 28.9318 46.3636 28.5682 46.3636 28.142C46.3636 27.767 46.4375 27.4631 46.5852 27.2301C46.733 26.9943 46.9304 26.8097 47.1776 26.6761C47.4247 26.5426 47.6974 26.4432 47.9957 26.3778C48.2969 26.3097 48.5994 26.2557 48.9034 26.2159C49.3011 26.1648 49.6236 26.1264 49.8707 26.1009C50.1207 26.0724 50.3026 26.0256 50.4162 25.9602C50.5327 25.8949 50.5909 25.7812 50.5909 25.6193V25.5852C50.5909 25.1648 50.4759 24.8381 50.2457 24.6051C50.0185 24.3722 49.6733 24.2557 49.2102 24.2557C48.7301 24.2557 48.3537 24.3608 48.081 24.571C47.8082 24.7812 47.6165 25.0057 47.5057 25.2443L46.5511 24.9034C46.7216 24.5057 46.9489 24.196 47.233 23.9744C47.5199 23.75 47.8324 23.5937 48.1705 23.5057C48.5114 23.4148 48.8466 23.3693 49.1761 23.3693C49.3864 23.3693 49.6278 23.3949 49.9006 23.446C50.1761 23.4943 50.4418 23.5952 50.6974 23.7486C50.956 23.902 51.1705 24.1335 51.3409 24.4432C51.5114 24.7528 51.5966 25.1676 51.5966 25.6875V30H50.5909V29.1136H50.5398C50.4716 29.2557 50.358 29.4077 50.1989 29.5696C50.0398 29.7315 49.8281 29.8693 49.5639 29.983C49.2997 30.0966 48.9773 30.1534 48.5966 30.1534ZM48.75 29.25C49.1477 29.25 49.483 29.1719 49.7557 29.0156C50.0313 28.8594 50.2386 28.6577 50.3778 28.4105C50.5199 28.1634 50.5909 27.9034 50.5909 27.6307V26.7102C50.5483 26.7614 50.4545 26.8082 50.3097 26.8509C50.1676 26.8906 50.0028 26.9261 49.8153 26.9574C49.6307 26.9858 49.4503 27.0114 49.2741 27.0341C49.1009 27.054 48.9602 27.071 48.8523 27.0852C48.5909 27.1193 48.3466 27.1747 48.1193 27.2514C47.8949 27.3253 47.7131 27.4375 47.5739 27.5881C47.4375 27.7358 47.3693 27.9375 47.3693 28.1932C47.3693 28.5426 47.4986 28.8068 47.7571 28.9858C48.0185 29.1619 48.3494 29.25 48.75 29.25ZM57.5572 27.3239V23.4545H58.5629V30H57.5572V28.892H57.489C57.3356 29.2244 57.0969 29.5071 56.7731 29.7401C56.4492 29.9702 56.0401 30.0852 55.5458 30.0852C55.1367 30.0852 54.7731 29.9957 54.4549 29.8168C54.1367 29.6349 53.8867 29.3622 53.7049 28.9986C53.5231 28.6321 53.4322 28.1705 53.4322 27.6136V23.4545H54.4379V27.5455C54.4379 28.0227 54.5714 28.4034 54.8384 28.6875C55.1083 28.9716 55.4521 29.1136 55.8697 29.1136C56.1197 29.1136 56.3739 29.0497 56.6325 28.9219C56.8938 28.794 57.1126 28.598 57.2887 28.3338C57.4677 28.0696 57.5572 27.733 57.5572 27.3239ZM61.4105 26.0625V30H60.4048V23.4545H61.3764V24.4773H61.4616C61.6151 24.1449 61.848 23.8778 62.1605 23.6761C62.473 23.4716 62.8764 23.3693 63.3707 23.3693C63.8139 23.3693 64.2017 23.4602 64.5341 23.642C64.8665 23.821 65.125 24.0938 65.3097 24.4602C65.4943 24.8239 65.5866 25.2841 65.5866 25.8409V30H64.581V25.9091C64.581 25.3949 64.4474 24.9943 64.1804 24.7074C63.9134 24.4176 63.5469 24.2727 63.081 24.2727C62.7599 24.2727 62.473 24.3423 62.2202 24.4815C61.9702 24.6207 61.7727 24.8239 61.6278 25.0909C61.483 25.358 61.4105 25.6818 61.4105 26.0625ZM70.0835 30.1364C69.4698 30.1364 68.9414 29.9915 68.4982 29.7017C68.055 29.4119 67.7141 29.0128 67.4755 28.5043C67.2369 27.9957 67.1175 27.4148 67.1175 26.7614C67.1175 26.0966 67.2397 25.5099 67.484 25.0014C67.7312 24.4901 68.0749 24.0909 68.5153 23.804C68.9585 23.5142 69.4755 23.3693 70.0664 23.3693C70.5266 23.3693 70.9414 23.4545 71.3107 23.625C71.68 23.7955 71.9826 24.0341 72.2184 24.3409C72.4542 24.6477 72.6005 25.0057 72.6573 25.4148H71.6516C71.5749 25.1165 71.4045 24.8523 71.1403 24.6222C70.8789 24.3892 70.5266 24.2727 70.0835 24.2727C69.6914 24.2727 69.3477 24.375 69.0522 24.5795C68.7596 24.7812 68.5309 25.0668 68.3661 25.4361C68.2042 25.8026 68.1232 26.233 68.1232 26.7273C68.1232 27.233 68.2028 27.6733 68.3619 28.0483C68.5238 28.4233 68.7511 28.7145 69.0437 28.9219C69.3391 29.1293 69.6857 29.233 70.0835 29.233C70.3448 29.233 70.582 29.1875 70.7951 29.0966C71.0082 29.0057 71.1886 28.875 71.3363 28.7045C71.484 28.5341 71.5891 28.3295 71.6516 28.0909H72.6573C72.6005 28.4773 72.4599 28.8253 72.2354 29.1349C72.0138 29.4418 71.7198 29.6861 71.3533 29.8679C70.9897 30.0469 70.5664 30.1364 70.0835 30.1364ZM75.1332 26.0625V30H74.1275V21.2727H75.1332V24.4773H75.2184C75.3718 24.1392 75.6019 23.8707 75.9087 23.6719C76.2184 23.4702 76.6303 23.3693 77.1445 23.3693C77.5906 23.3693 77.9812 23.4588 78.3164 23.6378C78.6516 23.8139 78.9116 24.0852 79.0962 24.4517C79.2837 24.8153 79.3775 25.2784 79.3775 25.8409V30H78.3718V25.9091C78.3718 25.3892 78.2369 24.9872 77.967 24.7031C77.6999 24.4162 77.3292 24.2727 76.8548 24.2727C76.5252 24.2727 76.2298 24.3423 75.9684 24.4815C75.7099 24.6207 75.5053 24.8239 75.3548 25.0909C75.207 25.358 75.1332 25.6818 75.1332 26.0625Z" fill="black"/>
</svg>
